PathFileType	4	(X/Y/Z)	0_coords_data.trc
DataRate	CameraRate	NumFrames	NumMarkers	Units	OrigDataRate	OrigDataStartFrame	OrigNumFrames
30.0	30.0	6	21	m	30.0	47	65
Frame#	Time	THUMB_TIP	THUMB_IP	THUMB_MCP	THUMB_CMC	INDEX_TIP	INDEX_DIP	INDEX_PIP	INDEX_MCP	MIDDLE_TIP	MIDDLE_DIP	MIDDLE_PIP	MIDDLE_MCP	RING_TIP	RING_DIP	RING_PIP	RING_MCP	PINKY_TIP	PINKY_DIP	PINKY_PIP	PINKY_MCP	WRIST
X1	Y1	Z1	X2	Y2	Z2	X3	Y3	Z3	X4	Y4	Z4	X5	Y5	Z5	X6	Y6	Z6	X7	Y7	Z7	X8	Y8	Z8	X9	Y9	Z9	X10	Y10	Z10	X11	Y11	Z11	X12	Y12	Z12	X13	Y13	Z13	X14	Y14	Z14	X15	Y15	Z15	X16	Y16	Z16	X17	Y17	Z17	X18	Y18	Z18	X19	Y19	Z19	X20	Y20	Z20	X21	Y21	Z21
46	1.5333333333333334	0.03318249893188477	-0.0780728988647461	0.9522760009765625	0.018239799499511718	-0.06415059661865234	0.9732930297851563	-0.000359100013971328	-0.05523799896240234	0.999344970703125	-0.009413729667663575	-0.021128400802612305	1.0124099731445313	0.02898520088195801	-0.06077190017700195	0.8874600219726563	0.009518989562988281	-0.057570301055908206	0.9007269897460938	-0.00887819004058838	-0.053455398559570315	0.9176510009765625	-0.026937599182128905	-0.04338069915771484	0.9534459838867188	0.03302640151977539	-0.03134630012512207	0.8666959838867188	0.015071200370788575	-0.02819459915161133	0.8843729858398437	-0.006851719856262207	-0.024544200897216796	0.9069539794921875	-0.02758259963989258	-0.018646699905395508	0.9449310302734375	0.03286679840087891	-0.00014067299664020501	0.8680250244140625	0.014149100303649902	0.002351190090179443	0.8837839965820312	-0.007813779830932618	0.0037698099613189687	0.9046099853515625	-0.02098520088195801	0.003972440004348755	0.9441539916992188	0.029272499084472655	0.031299200057983395	0.8949829711914062	0.012019000053405761	0.034205101013183595	0.9050369873046875	-0.0047769098281860356	0.034058101654052736	0.9190819702148437	-0.014006199836730958	0.027189699172973633	0.94831298828125	-0.03905630111694336	0.006360209941864013	1.0337900390625
47	1.5666666666666667	0.02977869987487793	-0.0832802963256836	0.9544039916992187	0.017117000579833983	-0.06569429779052735	0.9738759765625	-0.0008284350037574761	-0.05491519927978516	1.0001400146484376	-0.009613590240478516	-0.02065559959411621	1.0135599975585938	0.027847999572753905	-0.0604994010925293	0.8861229858398437	0.00954284954071045	-0.05705630111694336	0.9008330078125	-0.007998829841613769	-0.05269910049438477	0.9186810302734375	-0.02576919937133789	-0.042750598907470704	0.954260009765625	0.03111370086669922	-0.029567499160766602	0.864864013671875	0.014582300186157226	-0.026903499603271486	0.8843820190429688	-0.005927800178527832	-0.023623600006103515	0.90810498046875	-0.02660659980773926	-0.01802869987487793	0.946072998046875	0.03108679962158203	0.0022058100700378417	0.866218994140625	0.013528499603271484	0.004156720161437988	0.88385302734375	-0.007145549774169922	0.005053760051727295	0.9059450073242188	-0.02039970016479492	0.004625170230865478	0.9454669799804688	0.028146400451660156	0.03425040054321289	0.89389501953125	0.011663599967956543	0.036000198364257815	0.9056840209960938	-0.0044135298728942875	0.03511750030517578	0.9205349731445313	-0.013637299537658692	0.02776519966125488	0.9495759887695312	-0.03911209869384766	0.0066864900588989255	1.0345699462890625
48	1.6	0.025083799362182618	-0.08829759979248047	0.9574749755859375	0.01547410011291504	-0.06729570007324219	0.9746480102539062	-0.001363700032234192	-0.0546521987915039	1.0009000244140625	-0.00972716999053955	-0.019985300064086914	1.0144099731445313	0.027786100387573242	-0.06000070190429688	0.8857999877929688	0.010041000366210938	-0.05642079925537109	0.9015659790039062	-0.0069790401458740235	-0.05193259811401367	0.9200280151367187	-0.025386899948120118	-0.042078601837158204	0.9552509765625	0.030416099548339844	-0.028171699523925783	0.8644819946289063	0.014901200294494628	-0.025801799774169923	0.8850579833984376	-0.0048158102035522465	-0.02271649932861328	0.9094039916992187	-0.02631920051574707	-0.017441200256347655	0.9472410278320312	0.030249500274658205	0.003789720058441162	0.8656599731445312	0.013628499984741211	0.00527515983581543	0.8845960083007812	-0.0061609001159667965	0.005874199867248535	0.9073729858398437	-0.019792499542236327	0.0053305702209472654	0.9463480224609375	0.02732010078430176	0.03660770034790039	0.8934650268554688	0.011282099723815917	0.0375718994140625	0.9065419921875	-0.00418375015258789	0.03612400054931641	0.9219959716796875	-0.013407400131225586	0.02839520072937012	0.950572021484375	-0.039624198913574216	0.0073136801719665525	1.035489990234375
49	1.6333333333333333	0.020855100631713867	-0.09114089965820313	0.9600750122070313	0.013751099586486817	-0.06822059631347656	0.9753660278320313	-0.0024574499130249018	-0.05422990036010742	1.0016599731445313	-0.010227999687194823	-0.019424100875854493	1.0153200073242188	0.02729129981994629	-0.05895309829711914	0.885489013671875	0.01033199977874756	-0.05519570159912109	0.9022410278320312	-0.0062201499938964845	-0.050756198883056644	0.9211229858398438	-0.025273300170898436	-0.041189300537109376	0.9562169799804687	0.029389299392700196	-0.02650119972229004	0.864114013671875	0.01492240047454834	-0.024357200622558594	0.88575	-0.003942409992218017	-0.02164579963684082	0.9106500244140625	-0.02586210060119629	-0.016548599243164062	0.9483839721679688	0.028792699813842772	0.0055475101470947264	0.8650709838867188	0.013263999938964844	0.006670869827270508	0.8850590209960938	-0.005611159801483154	0.006948520183563232	0.9085	-0.01958690071105957	0.006238810062408447	0.947739013671875	0.02612459945678711	0.039100700378417966	0.8932349853515625	0.010704899787902832	0.03921289825439453	0.9074420166015625	-0.00403656005859375	0.0371593017578125	0.9230339965820312	-0.013427200317382813	0.029324800491333007	0.9520150146484375	-0.04023720169067383	0.008023940086364745	1.0370699462890625
50	1.6666666666666667	0.017565799713134767	-0.09287419891357422	0.9623200073242187	0.012273900032043457	-0.06872669982910157	0.9764340209960938	-0.00330935001373291	-0.05400899887084961	1.0023400268554687	-0.010613800048828125	-0.018801900863647462	1.0161900024414063	0.02494379997253418	-0.05880110168457031	0.8844190063476562	0.009136460304260253	-0.05472639846801758	0.9022789916992188	-0.0062500500679016115	-0.05010060119628906	0.9220230102539062	-0.025350200653076173	-0.04037039947509766	0.9572639770507813	0.026847900390625	-0.02519809913635254	0.8631519775390625	0.013508799552917481	-0.023280000686645506	0.8858300170898438	-0.004104949951171875	-0.02064940071105957	0.91168701171875	-0.025599700927734375	-0.01570460033416748	0.9492520141601563	0.026393600463867187	0.007131249904632569	0.8641630249023438	0.011893199920654298	0.007982500076293945	0.8851959838867187	-0.005732170104980469	0.007973629951477051	0.9096929931640625	-0.019359199523925782	0.00711191987991333	0.948531005859375	0.02444729995727539	0.04121139907836914	0.892760009765625	0.009792180061340331	0.04061309814453125	0.9077639770507813	-0.004214560031890869	0.03815570068359375	0.924155029296875	-0.013484600067138672	0.03003160095214844	0.9531199951171875	-0.04048910140991211	0.008625340461730958	1.037969970703125
51	1.7	0.01478719997406006	-0.09394650268554687	0.9640430297851562	0.01101550006866455	-0.06915910339355469	0.9774409790039063	-0.004538020133972168	-0.053679100036621095	1.0031599731445313	-0.011257900238037109	-0.018457300186157228	1.0169500122070312	0.022678899765014648	-0.05873260116577148	0.8836409912109375	0.00787962007522583	-0.054430801391601565	0.9022839965820313	-0.006627299785614014	-0.04959540176391602	0.92264697265625	-0.02544729995727539	-0.03960110092163086	0.9582890014648437	0.02487899971008301	-0.02423550033569336	0.8626300048828125	0.012518400192260743	-0.02241259956359863	0.8861580200195313	-0.004130499839782715	-0.01997960090637207	0.9124849853515625	-0.025392999649047853	-0.014989999771118164	0.9501929931640625	0.02482080078125	0.008259140014648437	0.863760986328125	0.011302000045776367	0.008900340080261231	0.88564599609375	-0.005444200038909912	0.008720669746398926	0.9106199951171875	-0.01935140037536621	0.007724989891052246	0.949385009765625	0.023124799728393555	0.04307989883422852	0.8925089721679688	0.009127739906311036	0.04184189987182617	0.9082520141601562	-0.004191599845886231	0.0389109992980957	0.9250070190429688	-0.01346030044555664	0.03064609909057617	0.95375	-0.04092070007324219	0.009246970176696777	1.038780029296875
